<svg xmlns="http://www.w3.org/2000/svg" viewBox="0 0 256 256" width="256" height="256">
  <defs>
    <linearGradient id="g" x1="0" y1="0" x2="0" y2="1">
      <stop offset="0" stop-color="#ff4b4b"/>
      <stop offset="1" stop-color="#c20000"/>
    </linearGradient>
    <linearGradient id="g2" x1="0" y1="0" x2="1" y2="1">
      <stop offset="0" stop-color="#ffd36a"/>
      <stop offset="1" stop-color="#ffb300"/>
    </linearGradient>
    <filter id="shadow" x="-20%" y="-20%" width="140%" height="140%">
      <feDropShadow dx="0" dy="10" stdDeviation="10" flood-color="#000" flood-opacity="0.35"/>
    </filter>
  </defs>

  <!-- envelope body -->
  <rect x="44" y="32" width="168" height="208" rx="22" fill="url(#g)" filter="url(#shadow)"/>

  <!-- top band -->
  <rect x="44" y="64" width="168" height="22" rx="11" fill="rgba(255,255,255,0.12)"/>

  <!-- inner gold panel -->
  <rect x="72" y="92" width="112" height="116" rx="18" fill="url(#g2)"/>

  <!-- simple coin + knot -->
  <circle cx="128" cy="128" r="28" fill="rgba(255,255,255,0.22)"/>
  <circle cx="128" cy="128" r="20" fill="rgba(0,0,0,0.08)"/>
  <path d="M128 114c8 0 14 6 14 14s-6 14-14 14-14-6-14-14 6-14 14-14zm0 8a6 6 0 1 0 0 12 6 6 0 0 0 0-12z" fill="rgba(255,255,255,0.65)"/>

  <!-- highlight -->
  <path d="M68 48c0-10 8-18 18-18h18c4 0 8 3 8 8 0 4-3 8-8 8H86c-6 0-10 4-10 10v26c0 4-3 8-8 8-4 0-8-3-8-8V48z" fill="rgba(255,255,255,0.14)"/>
</svg>
